# xmcd CD database file
#
# Track frame offsets:
#	150
#	17339
#	34919
#	56193
#	80868
#	100012
#	122807
#	141306
#	162813
#	186370
#	206630
#
# Disc length: 3040 seconds
#
# Revision: 0
# Processed by: cddbd v1.5.1PL0 Copyright (c) Steve Scherf et al.
# Submitted via: CDex 1.51
#
DISCID=9a0bde0b
DTITLE=矢沢 永吉 - ＬＯＴＴＡ　ＧＯＯＤ　ＴＩＭＥ
DYEAR=1999
DGENRE=Rock
TTITLE0=Ｏｈ！　ラヴシック
TTITLE1=風の中のおまえ（ニッポンチャレンジ・テーマソング）
TTITLE2=ＴＨＥ　ＳＴＲＡＮＧＥ　ＷＯＲＬＤ
TTITLE3=フォーチュン・テイラー
TTITLE4=ヘヴンリー・クルーズ
TTITLE5=ロックンロール・バイブル
TTITLE6=寂しくてたまらない
TTITLE7=バーチャル・リアリティー・ドール
TTITLE8=永遠のひとかけら
TTITLE9=金ピカのドレス
TTITLE10=Ｉ　ｈａｖｅ　ｎｏ　ｒｅａｓｏｎ．（映画「お受験」エンディングテーマ）
EXTD=YEAR: 1999-08-06
EXTT0=
EXTT1=
EXTT2=
EXTT3=
EXTT4=
EXTT5=
EXTT6=
EXTT7=
EXTT8=
EXTT9=
EXTT10=
PLAYORDER=
